<?xml version="1.0" standalone="no"?>
<!DOCTYPE svg PUBLIC "-//W3C//DTD SVG 20010904//EN"
 "http://www.w3.org/TR/2001/REC-SVG-20010904/DTD/svg10.dtd">
<svg version="1.0" xmlns="http://www.w3.org/2000/svg"
 width="512.000000pt" height="512.000000pt" viewBox="0 0 512.000000 512.000000"
 preserveAspectRatio="xMidYMid meet">
<metadata>
Created by potrace 1.11, written by Peter Selinger 2001-2013
</metadata>
<g transform="translate(0.000000,512.000000) scale(0.100000,-0.100000)"
fill="#000000" stroke="none">
<path d="M2457 5112 c-9 -2 -15 -7 -13 -11 3 -4 -1 -8 -9 -8 -8 0 -12 3 -10 7
2 4 -9 7 -25 8 -17 0 -30 -5 -30 -11 0 -8 -3 -8 -9 1 -4 8 -12 14 -16 14 -4 0
-12 -6 -16 -14 -7 -11 -11 -10 -19 2 -5 8 -10 10 -10 4 0 -7 -14 -11 -35 -9
-32 2 -40 -5 -36 -28 1 -5 -3 -6 -9 -2 -6 3 -7 11 -4 17 4 6 1 8 -7 6 -8 -3
-13 -11 -11 -17 1 -7 -2 -10 -8 -6 -6 3 -8 11 -5 16 11 16 -7 9 -21 -8 -13
-17 -13 -17 -14 2 0 11 -4 16 -8 10 -4 -5 -16 -11 -27 -12 -11 -1 -31 -4 -45
-7 -14 -4 -38 -9 -55 -12 -16 -3 -36 -10 -44 -17 -12 -10 -13 -9 -7 3 4 8 -1
4 -12 -9 -14 -18 -21 -21 -27 -11 -5 9 -4 11 3 6 7 -4 12 -2 12 4 0 7 -7 9
-16 6 -9 -3 -18 -6 -20 -6 -3 0 -2 -6 2 -12 6 -10 4 -10 -8 0 -13 10 -18 10
-24 1 -5 -8 -3 -9 6 -4 9 5 11 4 6 -3 -5 -9 -13 -9 -27 -2 -15 9 -21 7 -25 -5
-3 -8 -10 -15 -16 -15 -5 0 -6 6 -2 13 6 8 3 8 -9 -1 -9 -8 -21 -11 -27 -7
-14 9 -13 -8 3 -25 10 -12 9 -12 -4 -2 -9 6 -20 8 -24 4 -5 -4 -5 -1 -1 6 6
10 2 10 -18 1 -14 -7 -22 -17 -19 -23 4 -6 0 -5 -9 2 -13 10 -18 10 -30 -1 -7
-7 -19 -12 -26 -9 -6 2 -12 -1 -12 -7 0 -6 5 -11 12 -11 6 0 9 -3 6 -6 -4 -3
-15 -1 -26 5 -14 7 -24 6 -40 -5 -12 -8 -22 -12 -22 -9 0 4 -15 -4 -32 -17
-18 -13 -34 -22 -35 -20 -8 6 -23 1 -19 -7 3 -5 -1 -12 -10 -15 -8 -3 -12 -2
-9 4 12 19 -7 10 -27 -12 -11 -13 -17 -17 -13 -10 3 6 1 12 -4 12 -6 0 -11 -5
-11 -12 0 -6 -3 -9 -6 -5 -3 3 -14 -2 -25 -11 -11 -9 -24 -18 -29 -18 -6 -1
-14 -2 -20 -3 -5 0 -10 -9 -11 -18 0 -11 -3 -13 -6 -6 -3 9 -18 4 -49 -18 -24
-16 -44 -27 -44 -23 0 3 -7 1 -15 -6 -8 -7 -12 -16 -10 -21 3 -4 -3 -6 -14 -4
-15 3 -19 -1 -16 -17 3 -16 2 -19 -7 -10 -17 17 -53 -5 -38 -23 8 -10 8 -15
-1 -21 -7 -4 -9 -3 -5 4 3 5 0 12 -6 15 -13 4 -26 -5 -79 -56 -15 -16 -33 -26
-39 -22 -5 3 -10 -1 -10 -10 0 -9 -4 -14 -9 -11 -4 3 -19 -6 -32 -21 -13 -14
-18 -23 -10 -18 10 6 12 4 7 -4 -6 -9 -11 -9 -21 -1 -9 8 -14 6 -19 -5 -3 -9
-2 -13 4 -10 5 3 7 -1 4 -9 -3 -9 -12 -12 -22 -9 -12 5 -14 2 -9 -12 7 -16 5
-16 -10 -4 -11 9 -14 10 -9 2 4 -7 2 -13 -4 -13 -19 0 -111 -93 -106 -106 3
-8 -1 -11 -10 -7 -10 4 -17 -2 -21 -16 -3 -11 -10 -18 -15 -15 -6 4 -8 -3 -4
-17 3 -13 3 -18 0 -11 -3 6 -10 12 -15 12 -6 0 -8 -4 -4 -9 3 -5 -4 -12 -15
-16 -11 -3 -20 -11 -20 -17 0 -6 7 -5 18 3 15 13 16 12 3 -3 -7 -10 -20 -18
-28 -18 -7 0 -16 -7 -19 -15 -4 -8 -28 -38 -55 -67 -40 -43 -46 -54 -36 -67 9
-12 9 -13 0 -7 -8 4 -13 2 -13 -4 0 -6 -4 -8 -10 -5 -9 5 -15 -15 -11 -37 0
-4 -6 -5 -15 -1 -8 3 -14 2 -13 -3 3 -18 -14 -54 -22 -48 -5 3 -9 -1 -9 -10 0
-8 6 -17 13 -20 6 -3 1 -3 -13 0 -14 4 -22 3 -18 -1 3 -3 -2 -15 -13 -26 -21
-21 -25 -49 -7 -49 6 0 8 -3 5 -6 -4 -4 -14 -1 -24 7 -11 9 -14 10 -9 2 4 -8
2 -13 -4 -13 -6 0 -9 -4 -6 -9 3 -5 -1 -14 -9 -21 -8 -7 -15 -16 -15 -21 0 -5
-14 -30 -30 -56 -17 -26 -30 -52 -30 -57 0 -6 4 -5 9 2 7 11 9 10 14 -3 4 -9
3 -13 -3 -10 -6 3 -10 1 -10 -5 0 -6 -5 -8 -10 -5 -6 3 -11 0 -11 -7 -1 -7 -2
-17 -4 -23 -1 -5 -3 -16 -3 -23 -1 -7 -6 -11 -11 -7 -5 3 -15 -12 -21 -32 -7
-21 -16 -43 -21 -49 -5 -6 -6 -14 -2 -17 3 -4 2 -7 -4 -7 -6 0 -9 -9 -5 -22 4
-16 2 -19 -8 -13 -10 6 -12 4 -7 -8 3 -10 3 -17 -2 -17 -10 0 -25 -48 -22 -67
1 -7 -2 -13 -7 -13 -5 0 -12 -9 -15 -20 -3 -13 -1 -18 6 -13 7 4 6 -1 -2 -10
-12 -16 -8 -22 12 -18 5 1 6 -3 2 -8 -3 -6 -13 -7 -23 -4 -9 3 -14 3 -10 -2 4
-4 3 -14 -3 -21 -6 -7 -12 -23 -14 -36 -2 -13 -6 -33 -9 -46 -3 -13 -1 -20 4
-17 6 3 7 -1 4 -9 -3 -9 -10 -13 -15 -10 -5 3 -9 -2 -9 -11 0 -10 5 -14 12
-10 7 4 5 0 -5 -9 -13 -10 -17 -21 -12 -35 3 -12 3 -21 -2 -21 -5 0 -9 -9 -10
-20 -1 -13 3 -18 10 -14 7 3 4 -1 -6 -10 -13 -10 -17 -21 -12 -35 3 -12 2 -21
-2 -21 -5 0 -9 -11 -9 -24 0 -17 4 -22 16 -19 13 5 13 4 -1 -8 -23 -20 -29
-44 -16 -59 9 -10 9 -11 -1 -5 -10 5 -13 1 -12 -11 1 -11 1 -21 0 -24 -1 -3
-3 -17 -5 -33 -3 -19 0 -25 8 -20 7 4 5 -2 -3 -12 -8 -10 -10 -16 -5 -13 16
10 16 -29 0 -42 -12 -10 -12 -15 1 -35 11 -18 12 -25 3 -31 -7 -4 -9 -3 -5 4
3 6 3 13 -1 15 -5 3 -9 -22 -10 -54 -1 -40 2 -57 9 -53 7 5 8 2 3 -6 -10 -16
-13 -100 -3 -106 4 -3 4 -12 1 -21 -5 -12 -3 -14 8 -8 11 6 12 5 2 -6 -7 -7
-13 -17 -13 -22 0 -4 6 -5 13 -1 8 5 8 2 -2 -9 -11 -14 -11 -17 0 -17 11 0 11
-2 -1 -10 -10 -6 -11 -10 -2 -10 6 0 12 -5 12 -11 0 -5 -4 -7 -10 -4 -5 3 -7
0 -4 -9 3 -8 13 -12 22 -10 16 5 16 5 0 -5 -12 -8 -15 -22 -12 -53 6 -59 8
-70 22 -95 10 -18 10 -28 1 -44 -7 -13 -7 -19 -1 -15 6 3 13 2 17 -4 3 -5 1
-10 -4 -10 -6 0 -11 -5 -11 -11 0 -5 4 -8 9 -5 5 3 15 -2 22 -12 12 -15 12
-16 -2 -5 -20 16 -32 5 -14 -13 8 -8 12 -24 10 -36 -3 -12 -1 -26 3 -32 5 -6
9 -21 10 -33 0 -13 13 -35 29 -49 15 -15 21 -21 11 -15 -11 8 -18 9 -23 1 -3
-5 -2 -10 4 -10 5 0 8 -9 6 -20 -2 -11 1 -22 6 -25 5 -4 7 -11 4 -16 -4 -5 2
-6 12 -2 16 6 17 5 3 -12 -8 -10 -10 -16 -4 -12 7 4 14 0 17 -8 4 -9 1 -12 -9
-8 -14 5 -14 3 -3 -15 10 -15 16 -18 21 -9 4 7 8 7 8 2 0 -6 -6 -17 -12 -24
-11 -11 -10 -12 0 -6 8 4 13 2 11 -6 -3 -25 1 -40 9 -35 5 3 8 -5 7 -17 -1
-12 3 -33 10 -47 7 -14 18 -37 25 -52 7 -15 18 -25 24 -21 7 4 6 1 -1 -7 -6
-7 -9 -19 -6 -26 8 -20 23 -17 17 4 -5 14 -4 14 4 2 8 -10 7 -19 -1 -29 -10
-12 -9 -14 4 -9 13 5 16 2 11 -14 -3 -12 -1 -19 4 -15 6 3 15 -3 22 -14 7 -11
8 -19 2 -19 -5 0 -10 5 -10 12 0 6 -3 8 -6 5 -4 -4 1 -19 12 -34 10 -15 18
-30 18 -33 0 -3 8 -14 18 -24 9 -10 14 -24 11 -30 -4 -6 2 -4 12 4 17 14 18
14 5 -9 -11 -21 -10 -23 3 -18 12 4 14 2 10 -10 -4 -11 -3 -14 6 -9 8 5 12 3
10 -5 -3 -28 1 -40 13 -33 8 5 9 2 5 -10 -4 -10 -3 -15 3 -11 9 6 14 -8 11
-27 0 -5 6 -8 14 -8 9 0 15 -6 13 -14 -2 -8 6 -22 17 -31 11 -9 14 -13 6 -9
-9 5 -12 3 -7 -5 4 -7 17 -9 29 -6 20 5 20 5 4 -5 -17 -11 -17 -13 -3 -28 9
-10 25 -28 35 -42 17 -22 21 -23 37 -10 18 14 18 14 2 -5 -16 -20 -15 -23 38
-80 30 -33 61 -69 70 -80 8 -11 12 -15 9 -8 -3 6 0 15 6 19 8 4 9 3 5 -4 -4
-7 -2 -12 4 -12 6 0 8 -5 4 -11 -7 -13 65 -91 78 -83 4 3 8 -1 8 -9 0 -21 47
-60 64 -54 11 4 13 1 9 -10 -5 -13 -2 -15 11 -10 11 5 15 3 10 -4 -8 -13 74
-91 87 -83 5 3 9 0 9 -5 0 -6 8 -11 18 -11 14 0 15 -2 2 -10 -13 -8 -13 -10 2
-10 9 0 19 6 22 13 3 6 3 1 -1 -13 -5 -22 -4 -23 11 -11 14 12 16 12 10 -3 -5
-12 -2 -15 10 -10 9 4 16 3 14 -2 -2 -5 0 -9 3 -9 4 0 15 -11 26 -24 12 -15
30 -24 49 -24 16 0 23 -2 17 -4 -18 -6 -16 -20 3 -27 8 -3 12 -2 9 4 -3 6 -1
10 4 10 6 0 11 -7 11 -16 0 -10 5 -14 16 -10 8 3 13 2 10 -3 -3 -5 1 -14 8
-20 12 -10 14 -8 10 11 -3 15 0 12 10 -9 8 -18 18 -33 21 -33 3 0 4 4 0 9 -3
5 0 13 6 17 7 4 9 3 6 -2 -8 -14 8 -37 27 -40 9 -1 14 1 11 5 -2 4 2 8 9 8 8
0 12 -7 8 -15 -3 -10 -1 -13 6 -8 7 4 12 1 12 -8 0 -9 3 -15 8 -14 15 4 52
-14 47 -23 -3 -5 1 -6 9 -3 9 4 16 1 16 -6 0 -10 4 -10 16 0 13 11 16 10 21
-9 5 -18 8 -19 21 -9 12 10 14 10 8 0 -6 -11 27 -32 45 -28 4 0 15 -7 26 -16
10 -10 33 -18 51 -20 17 -1 34 -8 37 -16 3 -7 10 -10 16 -6 6 3 14 2 18 -4 3
-6 18 -13 31 -15 14 -3 42 -12 63 -20 20 -9 39 -12 42 -7 6 9 31 8 41 -3 4 -3
-3 -4 -15 -2 -13 2 -19 0 -15 -6 3 -6 8 -8 11 -5 3 2 16 1 30 -5 18 -7 22 -6
17 4 -4 6 -4 9 1 5 4 -4 13 -3 20 2 8 7 12 5 12 -5 0 -8 -4 -12 -9 -9 -4 3 -8
0 -8 -5 0 -17 28 -13 38 5 6 11 11 13 16 5 4 -6 2 -11 -5 -11 -10 0 -10 -3 -1
-12 10 -10 15 -10 21 0 7 11 9 11 14 -2 3 -8 15 -14 27 -13 13 1 19 6 15 15
-2 7 0 10 5 7 6 -3 10 -13 10 -21 0 -8 10 -14 23 -14 18 0 19 2 7 10 -8 5 -10
10 -4 10 6 0 17 -7 24 -15 10 -12 16 -13 27 -3 11 9 13 9 11 -2 -2 -8 8 -13
29 -15 20 -1 30 2 26 9 -3 6 -3 8 2 4 4 -4 15 -2 23 5 13 10 14 9 4 -10 -11
-20 -10 -21 16 -19 15 2 30 -2 34 -8 5 -7 8 -7 8 3 0 10 3 11 14 2 11 -9 16
-9 21 0 6 8 10 7 16 -2 8 -12 11 -11 19 1 5 8 10 10 10 4 0 -15 50 -25 50 -10
0 6 5 4 10 -4 7 -11 10 -11 10 -2 0 8 5 10 13 5 15 -9 257 -12 257 -2 0 3 11
4 25 1 14 -2 33 2 42 9 10 8 14 9 10 2 -5 -8 1 -11 20 -8 16 2 30 4 33 5 10 4
35 7 73 8 28 2 37 6 38 20 0 15 1 14 8 -3 8 -19 8 -19 19 0 11 19 11 19 12 1
0 -17 1 -17 25 -2 14 10 34 14 45 11 10 -3 21 -1 25 5 3 5 17 7 31 4 15 -4 24
-2 24 6 0 6 -4 8 -10 5 -5 -3 -10 -2 -10 4 0 17 18 21 24 5 3 -8 10 -12 16 -9
6 4 7 11 4 17 -4 7 0 7 12 1 26 -13 43 -11 54 7 7 11 10 11 10 2 0 -9 5 -10
19 -3 10 6 33 13 51 16 19 3 40 14 47 23 9 11 12 12 7 2 -5 -10 1 -8 16 5 13
11 20 14 16 8 -4 -7 -2 -13 3 -13 6 0 11 8 12 18 0 10 3 12 6 5 7 -18 20 -16
43 7 12 12 20 15 20 8 1 -7 8 -2 16 12 8 14 13 18 10 8 -5 -19 25 -19 32 0 2
7 15 12 28 12 17 0 23 4 18 12 -5 8 -2 9 9 5 11 -4 25 2 38 16 12 12 18 15 14
7 -7 -12 -6 -13 7 -3 8 7 19 9 23 5 5 -4 5 1 2 10 -4 13 -2 15 10 11 10 -4 21
1 30 13 8 10 23 20 33 20 38 3 41 4 34 16 -5 8 -2 9 10 5 11 -5 15 -3 10 5 -5
8 -2 9 10 5 10 -4 19 -1 23 8 3 9 10 15 17 14 30 -4 38 2 33 22 -4 16 -3 18 9
8 11 -9 14 -9 14 0 0 7 5 9 12 5 6 -4 8 -3 5 3 -4 6 0 14 9 17 10 4 13 2 8 -7
-5 -8 -2 -7 9 2 20 16 23 36 5 25 -7 -4 -9 -3 -5 1 11 13 38 15 31 3 -4 -6 6
-2 20 7 18 12 25 23 21 34 -3 8 -3 12 1 8 4 -4 14 -1 23 6 14 11 14 10 2 -6
-12 -15 -12 -17 3 -11 9 3 17 10 17 15 1 5 2 14 3 21 0 6 8 13 16 15 13 4 13
3 0 -6 -9 -6 -10 -11 -3 -11 6 0 24 13 40 28 15 16 36 31 47 35 11 4 16 13 12
22 -3 8 -1 15 4 15 6 0 10 -5 10 -11 0 -5 5 -7 11 -4 6 4 8 14 5 22 -3 8 -2
12 2 9 15 -9 54 25 47 41 -5 13 -3 14 10 3 14 -11 17 -10 22 8 3 12 10 19 16
15 6 -4 8 0 4 11 -4 9 -3 15 2 12 5 -3 21 7 37 21 16 15 32 27 36 26 8 -3 5
18 -5 35 -5 6 -4 12 2 12 5 0 12 -6 14 -12 6 -16 85 64 79 80 -2 7 3 12 12 12
21 0 31 20 15 32 -10 6 -6 7 11 2 14 -3 22 -3 18 1 -4 4 4 16 17 27 27 21 32
43 13 52 -7 3 -2 3 12 0 14 -4 22 -3 18 1 -4 4 5 18 19 31 14 13 22 24 18 24
-5 0 0 7 11 15 10 8 15 15 10 15 -6 0 -1 7 10 16 10 8 12 13 4 9 -8 -4 -2 3
13 15 22 18 25 25 16 36 -10 12 -9 13 5 8 15 -6 22 10 17 39 -1 5 4 5 10 1 8
-5 10 -2 6 9 -3 9 1 21 11 29 15 12 16 11 3 -4 -7 -10 -9 -18 -3 -18 13 0 24
29 15 42 -3 7 -1 8 5 4 13 -8 31 23 24 43 -2 8 0 11 6 7 5 -3 13 1 16 10 3 8
2 13 -2 10 -5 -3 -9 1 -9 8 0 7 7 13 16 12 9 0 16 6 16 14 0 8 2 17 5 20 24
24 30 39 19 46 -8 4 -9 3 -5 -4 4 -7 2 -12 -4 -12 -7 0 -10 6 -7 13 2 6 9 12
16 12 14 0 32 26 25 37 -3 5 -10 5 -16 2 -7 -4 -8 -2 -4 4 4 6 14 8 23 5 12
-5 14 -3 8 8 -12 19 -14 49 -3 43 5 -4 7 -12 4 -20 -3 -8 -1 -14 4 -14 10 0
14 14 11 38 -1 6 2 12 7 12 7 0 33 59 38 89 2 7 7 18 13 24 6 6 11 16 11 22 0
5 -5 3 -10 -5 -7 -10 -10 -11 -10 -2 0 7 7 15 15 18 11 5 13 10 5 19 -8 10 -8
15 1 21 8 5 10 3 4 -7 -6 -10 -5 -11 3 -4 6 6 13 20 15 32 2 13 6 26 10 29 4
4 -1 17 -10 28 -17 20 -17 20 0 7 14 -11 17 -11 19 0 0 8 2 19 2 24 1 6 5 16
10 24 6 9 5 12 -1 8 -5 -3 -10 0 -10 7 0 8 6 12 14 9 19 -7 16 27 -4 42 -13 9
-13 14 -3 20 9 5 11 4 6 -3 -4 -7 0 -12 10 -12 10 0 15 3 12 6 -4 3 -2 20 4
37 16 53 19 98 5 92 -7 -4 -5 -1 4 7 9 7 14 23 12 36 -1 13 1 21 5 18 5 -3 9
7 10 22 2 52 9 99 16 111 4 6 2 11 -5 11 -8 0 -8 4 1 15 9 10 9 15 1 15 -6 0
-11 5 -11 11 0 5 4 8 9 5 5 -3 9 13 9 35 1 23 3 43 6 46 2 3 1 16 -5 30 -6 16
-6 22 1 18 14 -9 12 2 -6 33 -15 25 -15 26 1 7 15 -19 16 -12 9 105 -3 69 -7
142 -8 162 0 21 -4 38 -8 38 -4 0 -5 7 -1 15 3 9 -3 26 -13 38 -16 18 -16 20
-1 8 21 -17 23 2 1 23 -8 9 -11 16 -5 16 15 0 14 27 -1 33 -10 4 -10 6 0 6 7
1 11 5 7 11 -3 5 -13 7 -23 4 -16 -5 -16 -5 0 9 14 11 15 16 5 27 -8 9 -8 11
0 6 7 -4 9 1 6 14 -3 11 -10 20 -17 20 -6 0 -4 5 4 10 10 6 11 10 3 10 -7 0
-12 8 -11 18 3 38 -2 54 -16 49 -10 -4 -13 -1 -9 8 3 8 10 12 17 8 6 -4 5 1
-2 10 -8 9 -11 20 -8 26 4 5 0 16 -8 24 -11 11 -12 17 -3 26 11 11 -1 16 -26
12 -5 -1 -6 3 -2 9 3 6 10 8 15 5 5 -3 4 8 -1 25 -7 18 -16 27 -22 24 -9 -5
-9 -3 0 6 12 13 6 43 -7 35 -5 -3 -12 0 -16 6 -4 7 -3 9 4 5 6 -3 13 -2 17 4
3 5 1 10 -4 10 -6 0 -11 7 -11 15 0 8 -6 15 -12 15 -9 0 -8 4 2 11 12 8 10 10
-10 5 -24 -5 -24 -4 -6 9 20 15 20 15 0 16 -10 0 -13 3 -6 6 6 2 12 9 12 14 0
6 -5 7 -11 3 -8 -4 -9 1 -4 16 5 17 4 21 -6 15 -9 -6 -11 -3 -6 8 3 10 2 17
-3 17 -6 0 -10 11 -10 23 0 15 -9 29 -22 36 -13 6 -15 9 -5 7 9 -3 17 -1 17 4
0 6 -7 10 -16 10 -9 0 -12 5 -8 12 5 7 2 9 -8 6 -8 -4 -15 0 -15 8 0 7 4 11 9
8 14 -9 9 11 -8 32 -8 10 -13 13 -9 7 3 -7 1 -13 -4 -13 -15 0 -14 13 2 29 9
11 9 13 0 7 -9 -5 -13 0 -13 14 0 17 -4 20 -22 15 -20 -5 -21 -5 -5 5 16 11
16 14 -10 61 -16 27 -32 49 -36 49 -5 0 -5 5 -2 10 3 6 2 10 -4 10 -5 0 -12
-6 -14 -12 -3 -7 -4 1 -2 17 3 34 -20 69 -57 85 l-23 11 25 -5 25 -5 -24 20
c-13 10 -20 19 -17 19 4 0 -7 20 -24 45 -17 25 -36 45 -41 45 -6 0 -7 5 -4 10
3 6 2 10 -4 10 -5 0 -11 -6 -14 -12 -2 -7 -4 -1 -4 14 -1 31 -19 58 -39 58 -7
0 -18 10 -25 21 -9 17 -8 20 3 13 7 -4 0 6 -17 24 -32 34 -47 43 -24 15 9 -11
10 -14 2 -9 -7 4 -18 16 -24 28 -9 16 -8 19 3 13 7 -4 3 2 -9 14 -24 23 -39
28 -27 9 4 -7 3 -8 -5 -4 -6 4 -9 11 -6 16 7 12 -35 60 -52 60 -8 0 -12 3 -10
8 3 4 -11 23 -31 42 -19 19 -30 28 -24 19 9 -12 9 -16 -3 -16 -8 0 -12 4 -9 8
2 4 -7 20 -21 36 -21 24 -26 26 -36 13 -9 -13 -10 -13 -6 2 3 9 -1 24 -9 35
-13 17 -14 17 -8 -2 3 -12 -1 -9 -11 8 -8 15 -23 27 -31 27 -8 0 -13 4 -9 9 3
5 -4 12 -15 16 -11 3 -20 12 -20 18 0 7 -4 6 -10 -3 -7 -11 -10 -12 -10 -2 0
19 -30 48 -31 30 0 -7 -5 -3 -11 10 -12 23 -38 31 -38 10 0 -6 -3 -8 -6 -5 -4
4 -1 14 7 24 8 9 9 14 3 10 -7 -4 -17 0 -24 8 -7 8 -21 15 -32 15 -10 0 -17 3
-15 8 3 4 -7 16 -21 26 -14 11 -22 15 -19 9 8 -13 -19 -11 -30 2 -4 4 -2 5 5
1 6 -4 12 -2 12 3 0 6 -9 11 -20 11 -11 0 -20 4 -20 8 0 5 -28 23 -61 41 -34
18 -59 29 -56 24 4 -6 0 -10 -7 -10 -8 0 -12 6 -9 13 2 6 -1 15 -8 20 -8 4
-10 3 -5 -4 5 -8 2 -10 -8 -6 -9 3 -13 11 -9 18 3 6 3 8 -2 4 -4 -4 -20 1 -35
12 -17 12 -35 17 -46 13 -13 -5 -15 -3 -9 7 6 10 4 12 -8 7 -10 -3 -17 -2 -17
3 0 6 -9 10 -20 10 -11 0 -20 5 -20 12 0 6 -10 3 -22 -8 -13 -10 -17 -12 -11
-4 9 10 10 17 2 27 -14 16 -36 17 -42 1 -3 -8 -6 -5 -6 5 -1 10 -5 15 -11 12
-5 -3 -10 0 -10 7 0 11 -2 10 -9 0 -7 -11 -9 -11 -14 2 -4 9 -10 15 -14 15 -8
-2 -24 3 -72 22 -16 7 -28 6 -37 -2 -11 -9 -14 -8 -14 4 0 10 -6 13 -20 10
-11 -3 -20 -1 -20 4 0 9 -13 13 -52 14 -10 0 -18 4 -18 8 0 5 -17 11 -37 14
-21 3 -47 8 -57 13 -11 4 -17 4 -14 -2 4 -5 -5 -10 -18 -10 -13 -1 -24 2 -24
8 0 5 5 6 10 3 6 -3 10 -2 10 4 0 12 -40 11 -57 -2 -7 -5 -10 -14 -6 -20 3 -6
1 -7 -6 -3 -9 6 -9 11 0 22 6 8 9 18 5 21 -4 4 -11 1 -16 -7 -7 -10 -10 -11
-10 -2 0 6 -5 12 -11 12 -5 0 -7 -6 -3 -12 4 -7 -2 -5 -13 5 -22 19 -48 23
-37 6 5 -8 1 -8 -14 0 -32 17 -94 23 -86 8 5 -9 3 -9 -7 1 -7 6 -20 12 -29 12
-13 0 -13 -1 0 -10 12 -7 10 -9 -7 -7 -12 0 -19 5 -17 9 8 13 -31 9 -45 -4 -9
-8 -11 -8 -8 -2 4 7 0 15 -9 18 -8 3 -12 2 -9 -3 3 -5 1 -12 -5 -16 -5 -3 -10
0 -10 7 0 9 -18 13 -65 13 -36 1 -65 -3 -65 -8 0 -6 -5 -6 -12 0 -7 5 -21 8
-31 5z m393 -32 c0 -5 -2 -10 -4 -10 -3 0 -8 5 -11 10 -3 6 -1 10 4 10 6 0 11
-4 11 -10z m480 -100 c0 -5 -2 -10 -4 -10 -3 0 -8 5 -11 10 -3 6 -1 10 4 10 6
0 11 -4 11 -10z m160 -44 c0 -3 -4 -8 -10 -11 -5 -3 -10 -1 -10 4 0 6 5 11 10
11 6 0 10 -2 10 -4z m-1905 -44 c-3 -3 -11 0 -18 7 -9 10 -8 11 6 5 10 -3 15
-9 12 -12z m40 8 c3 -5 1 -10 -4 -10 -6 0 -11 5 -11 10 0 6 2 10 4 10 3 0 8
-4 11 -10z m1997 -42 c-7 -7 -12 -8 -12 -2 0 6 3 14 7 17 3 4 9 5 12 2 2 -3
-1 -11 -7 -17z m41 -13 c4 -8 3 -16 -1 -19 -4 -3 -9 4 -9 15 -2 23 3 25 10 4z
m-2313 -59 c0 -3 -4 -8 -10 -11 -5 -3 -10 -1 -10 4 0 6 5 11 10 11 6 0 10 -2
10 -4z m2481 -23 c13 -16 12 -17 -3 -4 -10 7 -18 15 -18 17 0 8 8 3 21 -13z
m-2536 -3 c-3 -5 -12 -10 -18 -10 -7 0 -6 4 3 10 19 12 23 12 15 0z m-35 -34
c0 -2 -7 -7 -16 -10 -8 -3 -12 -2 -9 4 6 10 25 14 25 6z m2730 -60 c0 -3 -4
-8 -10 -11 -5 -3 -10 -1 -10 4 0 6 5 11 10 11 6 0 10 -2 10 -4z m-3025 -136
c3 -5 1 -10 -4 -10 -6 0 -11 5 -11 10 0 6 2 10 4 10 3 0 8 -4 11 -10z m-135
-108 c0 -4 -10 -13 -22 -21 -23 -14 -23 -14 -4 8 20 22 26 25 26 13z m-41 -45
c-2 -1 -13 -9 -24 -17 -19 -14 -19 -14 -6 3 7 9 18 17 24 17 6 0 8 -1 6 -3z
m-209 -247 c-11 -21 -30 -27 -30 -9 0 5 4 8 9 5 5 -3 11 1 15 9 3 8 8 15 11
15 3 0 1 -9 -5 -20z m3975 10 c-3 -5 -11 -10 -16 -10 -6 0 -7 5 -4 10 3 6 11
10 16 10 6 0 7 -4 4 -10z m93 -141 c-3 -8 -7 -3 -11 10 -4 17 -3 21 5 13 5 -5
8 -16 6 -23z m56 -89 c-6 -6 -10 -3 -10 10 0 13 4 16 10 10 7 -7 7 -13 0 -20z
m64 -95 c-3 -3 -9 2 -12 12 -6 14 -5 15 5 6 7 -7 10 -15 7 -18z m-4393 6 c-9
-8 -36 -10 -30 -2 2 4 11 8 20 8 8 0 13 -3 10 -6z m-46 -84 c0 -8 -2 -8 -6 1
-4 10 -9 9 -20 -5 -13 -17 -13 -16 -3 5 11 22 31 22 29 -1z m-194 -477 c3 -6
-1 -7 -9 -4 -18 7 -21 14 -7 14 6 0 13 -4 16 -10z m-50 -160 c3 -5 1 -10 -4
-10 -6 0 -11 5 -11 10 0 6 2 10 4 10 3 0 8 -4 11 -10z m-15 -94 c0 -3 -4 -8
-10 -11 -5 -3 -10 -1 -10 4 0 6 5 11 10 11 6 0 10 -2 10 -4z m-29 -213 c13
-16 12 -17 -3 -4 -17 13 -22 21 -14 21 2 0 10 -8 17 -17z m5067 -194 c-3 -8
-7 -3 -11 10 -4 17 -3 21 5 13 5 -5 8 -16 6 -23z m-5078 -119 c0 -5 -5 -10
-11 -10 -5 0 -7 5 -4 10 3 6 8 10 11 10 2 0 4 -4 4 -10z m35 -280 c3 -6 -1 -7
-9 -4 -18 7 -21 14 -7 14 6 0 13 -4 16 -10z m4976 -143 c-10 -9 -11 -8 -5 6 3
10 9 15 12 12 3 -3 0 -11 -7 -18z m-51 -271 c0 -3 -4 -8 -10 -11 -5 -3 -10 -1
-10 4 0 6 5 11 10 11 6 0 10 -2 10 -4z m-4740 -248 c0 -4 -4 -8 -9 -8 -6 0
-12 4 -15 8 -3 5 1 9 9 9 8 0 15 -4 15 -9z m77 -164 c-3 -3 -12 -4 -19 -1 -8
3 -5 6 6 6 11 1 17 -2 13 -5z m203 -308 c0 -3 -4 -8 -10 -11 -5 -3 -10 -1 -10
4 0 6 5 11 10 11 6 0 10 -2 10 -4z m4080 0 c0 -3 -4 -8 -10 -11 -5 -3 -10 -1
-10 4 0 6 5 11 10 11 6 0 10 -2 10 -4z m-4060 -57 c0 -6 -4 -7 -10 -4 -5 3
-10 11 -10 16 0 6 5 7 10 4 6 -3 10 -11 10 -16z m4000 -44 c-7 -9 -15 -13 -19
-10 -3 3 1 10 9 15 21 14 24 12 10 -5z m-3935 -35 c10 -11 14 -20 9 -20 -5 0
-15 9 -22 20 -7 11 -11 20 -9 20 2 0 12 -9 22 -20z m3814 -106 c-6 -8 -15 -12
-18 -8 -3 4 0 9 7 11 6 3 9 10 6 15 -4 7 -2 8 5 4 9 -6 9 -11 0 -22z m-3656
-46 c-2 -5 -10 -8 -18 -8 -8 0 -16 3 -18 8 -3 4 5 7 18 7 13 0 21 -3 18 -7z
m47 -68 c6 -11 8 -20 6 -20 -3 0 -10 9 -16 20 -6 11 -8 20 -6 20 3 0 10 -9 16
-20z m91 -87 c13 -16 12 -17 -3 -4 -10 7 -18 15 -18 17 0 8 8 3 21 -13z m54
-33 c3 -5 1 -10 -4 -10 -6 0 -11 5 -11 10 0 6 2 10 4 10 3 0 8 -4 11 -10z
m332 -242 c-3 -8 -6 -5 -6 6 -1 11 2 17 5 13 3 -3 4 -12 1 -19z m228 -87 c3
-5 2 -12 -3 -15 -5 -3 -9 1 -9 9 0 17 3 19 12 6z m82 -57 c-3 -3 -12 -4 -19
-1 -8 3 -5 6 6 6 11 1 17 -2 13 -5z m74 -11 c13 -16 12 -17 -3 -4 -17 13 -22
21 -14 21 2 0 10 -8 17 -17z m1769 -17 c0 -2 -7 -7 -16 -10 -8 -3 -12 -2 -9 4
6 10 25 14 25 6z m-1640 -41 c11 -13 10 -14 -4 -9 -9 3 -16 10 -16 15 0 13 6
11 20 -6z m1195 -75 c3 -5 1 -10 -4 -10 -6 0 -11 5 -11 10 0 6 2 10 4 10 3 0
8 -4 11 -10z m-830 -10 c3 -6 -1 -7 -9 -4 -18 7 -21 14 -7 14 6 0 13 -4 16
-10z"/>
<path d="M5 2720 c-3 -5 -1 -10 4 -10 6 0 11 5 11 10 0 6 -2 10 -4 10 -3 0 -8
-4 -11 -10z"/>
<path d="M35 2120 c3 -5 8 -10 11 -10 2 0 4 5 4 10 0 6 -5 10 -11 10 -5 0 -7
-4 -4 -10z"/>
</g>
</svg>
