<?xml version="1.0" standalone="no"?>
<!DOCTYPE svg PUBLIC "-//W3C//DTD SVG 20010904//EN"
 "http://www.w3.org/TR/2001/REC-SVG-20010904/DTD/svg10.dtd">
<svg version="1.0" xmlns="http://www.w3.org/2000/svg"
 width="512.000000pt" height="512.000000pt" viewBox="0 0 512.000000 512.000000"
 preserveAspectRatio="xMidYMid meet">
<metadata>
Created by potrace 1.11, written by Peter Selinger 2001-2013
</metadata>
<g transform="translate(0.000000,512.000000) scale(0.100000,-0.100000)"
fill="#000000" stroke="none">
<path d="M2405 5110 c-616 -37 -1210 -305 -1650 -745 -400 -400 -654 -917
-730 -1490 -10 -75 -16 -193 -16 -315 0 -122 6 -240 16 -315 76 -573 330
-1090 730 -1490 400 -400 916 -653 1490 -730 160 -22 470 -22 630 0 574 77
1090 330 1490 730 400 400 653 916 730 1490 11 76 17 192 17 315 0 299 -37
526 -133 814 -184 557 -573 1047 -1079 1361 -434 269 -979 405 -1495 375z
m-631 -804 c46 -19 104 -72 129 -120 20 -38 22 -54 22 -236 0 -181 -2 -198
-22 -235 -58 -108 -176 -157 -298 -124 -56 16 -139 100 -155 158 -7 29 -10
107 -8 225 2 148 6 187 20 212 25 46 77 94 123 115 48 22 142 25 189 5z m1723
-1 c60 -25 102 -63 130 -118 23 -47 26 -66 31 -192 5 -163 -7 -241 -46 -305
-64 -103 -202 -140 -312 -83 -67 34 -114 94 -129 163 -14 66 -14 294 0 360 23
107 123 189 232 190 32 0 74 -7 94 -15z m-2261 -401 l82 -7 4 -101 c3 -63 12
-118 23 -146 43 -108 139 -194 249 -226 161 -45 345 39 421 193 25 50 30 74
34 168 l6 110 495 0 495 0 5 -105 c4 -93 9 -113 37 -171 100 -203 344 -268
531 -142 107 73 162 187 162 339 l0 84 244 0 c213 0 245 -2 250 -16 3 -9 6
-702 6 -1540 l0 -1524 -1730 0 -1730 0 0 1538 c0 846 3 1542 7 1545 8 9 302 9
409 1z"/>
<path d="M1080 2050 l0 -980 1473 2 1472 3 0 975 0 975 -1472 3 -1473 2 0
-980z m1368 553 l2 -173 -194 0 c-168 0 -195 2 -200 16 -10 27 -7 294 4 315
10 18 21 19 198 17 l187 -3 3 -172z m630 -1 l2 -172 -197 2 -198 3 -3 164 c-2
125 1 166 10 173 7 4 96 7 198 5 l185 -2 3 -173z m580 1 l2 -173 -194 0 c-168
0 -195 2 -200 16 -12 31 -7 309 6 322 9 9 62 12 198 10 l185 -3 3 -172z
m-1830 -570 l2 -173 -195 0 -195 0 0 168 c0 93 3 172 7 176 4 3 90 5 192 4
l186 -3 3 -172z m620 0 l2 -173 -194 0 c-168 0 -195 2 -200 16 -8 21 -8 298 0
318 6 14 30 16 198 14 l191 -3 3 -172z m627 2 l0 -170 -195 0 -195 0 -3 160
c-1 87 0 165 3 172 3 11 46 13 197 11 l193 -3 0 -170z m583 -2 l2 -173 -194 0
c-168 0 -195 2 -200 16 -8 21 -8 298 0 318 6 14 30 16 198 14 l191 -3 3 -172z
m-1830 -580 l2 -173 -195 0 -195 0 0 168 c0 93 3 172 7 176 4 3 90 5 192 4
l186 -3 3 -172z m620 0 l2 -173 -194 0 c-168 0 -195 2 -200 16 -10 27 -7 294
4 315 10 18 21 19 198 17 l187 -3 3 -172z m630 -1 l2 -172 -197 2 -198 3 -3
160 c-1 87 0 165 3 172 3 11 46 13 197 11 l193 -3 3 -173z m580 1 l2 -173
-194 0 c-168 0 -195 2 -200 16 -12 31 -7 309 6 322 9 9 62 12 198 10 l185 -3
3 -172z"/>
</g>
</svg>
